<svg xmlns="http://www.w3.org/2000/svg" xmlns:xlink="http://www.w3.org/1999/xlink" width="105" height="105" viewBox="0 0 105 105">
  <defs>
    <radialGradient id="radial-gradient" cx="0.5" cy="0.5" r="0.5" gradientUnits="objectBoundingBox">
      <stop offset="0" stop-color="#7ea7df"/>
      <stop offset="1" stop-color="#3c5185"/>
    </radialGradient>
    <filter id="Elipse_75" x="0" y="0" width="105" height="105" filterUnits="userSpaceOnUse">
      <feOffset dy="3" input="SourceAlpha"/>
      <feGaussianBlur stdDeviation="3" result="blur"/>
      <feFlood flood-opacity="0.161"/>
      <feComposite operator="in" in2="blur"/>
      <feComposite in="SourceGraphic"/>
    </filter>
  </defs>
  <g id="Grupo_26619" data-name="Grupo 26619" transform="translate(-841 -3482)">
    <g transform="matrix(1, 0, 0, 1, 841, 3482)" filter="url(#Elipse_75)">
      <circle id="Elipse_75-2" data-name="Elipse 75" cx="43.5" cy="43.5" r="43.5" transform="translate(9 6)" fill="url(#radial-gradient)"/>
    </g>
    <g id="Grupo_26355" data-name="Grupo 26355" transform="translate(866 3503)">
      <g id="Grupo_26354" data-name="Grupo 26354" transform="translate(0.001)">
        <path id="Trazado_7231" data-name="Trazado 7231" d="M813.21,3494.478a3.639,3.639,0,1,0-3.667,0,4.551,4.551,0,0,0-2.712,4.154v.91a.909.909,0,0,0,.908.91h2.728v6.368h1.819v-6.369h2.726a.908.908,0,0,0,.91-.908v-.911A4.549,4.549,0,0,0,813.21,3494.478Zm-1.835-4.943a1.819,1.819,0,1,1-1.819,1.819h0A1.821,1.821,0,0,1,811.375,3489.535Zm-2.726,9.1a2.729,2.729,0,0,1,5.458,0h-5.458Z" transform="translate(-784.085 -3487.697)" fill="#fff"/>
        <path id="Trazado_7232" data-name="Trazado 7232" d="M783.546,3507.224h7.277a.908.908,0,0,0,.91-.908v-.123l9.5,6.335,1.009-1.513-10.816-7.206a4.563,4.563,0,0,0-2.407-2.553,3.639,3.639,0,1,0-3.667,0,4.55,4.55,0,0,0-2.712,4.154v.91A.909.909,0,0,0,783.546,3507.224Zm3.638-10.915a1.819,1.819,0,1,1-1.819,1.819h0a1.822,1.822,0,0,1,1.819-1.82Zm0,6.368a2.731,2.731,0,0,1,2.726,2.727h-5.453a2.733,2.733,0,0,1,2.726-2.728Z" transform="translate(-782.637 -3488.103)" fill="#fff"/>
        <path id="Trazado_7233" data-name="Trazado 7233" d="M836.729,3501.251a3.639,3.639,0,1,0-3.667,0,4.564,4.564,0,0,0-2.407,2.553l-10.816,7.211,1.009,1.513,9.5-6.335v.121a.909.909,0,0,0,.908.91h7.279a.909.909,0,0,0,.91-.908v-.91A4.55,4.55,0,0,0,836.729,3501.251Zm-1.836-4.942a1.819,1.819,0,1,1-1.819,1.819h0a1.822,1.822,0,0,1,1.819-1.82Zm-2.726,9.1a2.729,2.729,0,0,1,5.458,0Z" transform="translate(-784.864 -3488.102)" fill="#fff"/>
        <path id="Trazado_7234" data-name="Trazado 7234" d="M836.729,3528.342a3.639,3.639,0,1,0-3.667,0,4.56,4.56,0,0,0-1.347.913l-10.853-7.514-1.034,1.5,10.87,7.521a4.524,4.524,0,0,0-.347,1.732v.91a.909.909,0,0,0,.908.91h7.279a.909.909,0,0,0,.91-.908v-.912A4.548,4.548,0,0,0,836.729,3528.342Zm-1.836-4.942a1.819,1.819,0,1,1-1.824,1.818,1.819,1.819,0,0,1,1.824-1.818h0Zm-2.726,9.1a2.729,2.729,0,0,1,5.458,0h-5.458Z" transform="translate(-784.863 -3489.724)" fill="#fff"/>
        <path id="Trazado_7235" data-name="Trazado 7235" d="M813.21,3540.515a3.615,3.615,0,0,0-.926-6.633v-6.5h-1.819v6.5a3.615,3.615,0,0,0-.926,6.633,4.55,4.55,0,0,0-2.712,4.154v.91a.909.909,0,0,0,.908.91h7.279a.909.909,0,0,0,.91-.908v-.912A4.549,4.549,0,0,0,813.21,3540.515Zm-1.835-4.943a1.819,1.819,0,1,1-1.819,1.819h0a1.821,1.821,0,0,1,1.819-1.818Zm-2.726,9.1a2.729,2.729,0,0,1,5.458,0Z" transform="translate(-784.085 -3490.073)" fill="#fff"/>
        <path id="Trazado_7236" data-name="Trazado 7236" d="M801.222,3521.741l-10.853,7.512a4.542,4.542,0,0,0-1.347-.913,3.639,3.639,0,1,0-3.672,0,4.55,4.55,0,0,0-2.712,4.153v.909a.909.909,0,0,0,.908.91h7.279a.909.909,0,0,0,.91-.908v-.912a4.509,4.509,0,0,0-.347-1.732l10.87-7.521Zm-14.036,1.658a1.819,1.819,0,1,1-1.819,1.819h0a1.821,1.821,0,0,1,1.818-1.819Zm-2.726,9.1a2.729,2.729,0,0,1,5.458,0h-5.458Z" transform="translate(-782.637 -3489.724)" fill="#fff"/>
        <path id="Trazado_7237" data-name="Trazado 7237" d="M811.026,3527.08a10.006,10.006,0,1,1,10.006-10.006A10.006,10.006,0,0,1,811.026,3527.08Z" transform="translate(-783.737 -3488.856)" fill="#f9a71e"/>
        <path id="Trazado_7238" data-name="Trazado 7238" d="M813.21,3516.731a3.638,3.638,0,1,0-3.667,0,4.55,4.55,0,0,0-2.712,4.154v.91a.909.909,0,0,0,.908.91h7.279a.909.909,0,0,0,.91-.908v-.91A4.55,4.55,0,0,0,813.21,3516.731Zm-1.835-4.942a1.819,1.819,0,1,1-1.819,1.819h0a1.822,1.822,0,0,1,1.819-1.82Zm-2.726,9.1a2.729,2.729,0,0,1,5.458,0h-5.458Z" transform="translate(-784.085 -3489.029)" fill="#fff"/>
      </g>
    </g>
  </g>
</svg>
