<svg xmlns="http://www.w3.org/2000/svg" width="46.907" height="47.061" viewBox="0 0 46.907 47.061">
  <g id="Trazado_8201" data-name="Trazado 8201" transform="translate(1.626 2.002)" fill="#3c5185">
    <path d="M 21.23715400695801 44.05911254882813 C 9.18177318572998 44.05911254882813 -0.6259968876838684 34.25133895874023 -0.6259968876838684 22.19595146179199 C -0.6259968876838684 10.14078044891357 9.181673049926758 0.3330107927322388 21.2369327545166 0.3327907919883728 C 23.70659255981445 0.3327907919883728 26.13543319702148 0.7455208301544189 28.45600318908691 1.559510827064514 L 29.95651245117188 2.085850715637207 L 28.83211326599121 3.210250854492188 L 27.84748268127441 4.194880962371826 C 27.44851303100586 4.593850612640381 27.22879219055176 5.124410629272461 27.22879219055176 5.688820838928223 L 27.22879219055176 8.170841217041016 L 27.22879219055176 9.590770721435547 L 25.89187240600586 9.112370491027832 C 24.39532279968262 8.576850891113281 22.82925224304199 8.305320739746094 21.23715400695801 8.305320739746094 C 13.57795333862305 8.305320739746094 7.346733093261719 14.53654098510742 7.346733093261719 22.19574165344238 C 7.346733093261719 29.85494995117188 13.57795333862305 36.0861701965332 21.23715400695801 36.0861701965332 C 28.8963623046875 36.0861701965332 35.12758255004883 29.85494995117188 35.12758255004883 22.19574165344238 C 35.12758255004883 20.55035018920898 34.83864212036133 18.9351806640625 34.26880264282227 17.39508056640625 L 33.77040481567383 16.04807090759277 L 35.20666122436523 16.04807090759277 L 37.58803176879883 16.04807090759277 C 38.15243148803711 16.04807090759277 38.68300247192383 15.82834053039551 39.08198165893555 15.42937088012695 L 40.14054489135742 14.37101078033447 L 41.25014495849609 13.26164054870605 L 41.78718185424805 14.73592090606689 C 42.65851211547852 17.12786102294922 43.10031127929688 19.63778114318848 43.10031127929688 22.19595146179199 C 43.10031127929688 34.25133895874023 33.29254150390625 44.05911254882813 21.23715400695801 44.05911254882813 Z M 21.23715400695801 34.97375106811523 C 14.1914529800415 34.97375106811523 8.459362983703613 29.24165153503418 8.459362983703613 22.19595146179199 C 8.459362983703613 15.15025043487549 14.1914529800415 9.418160438537598 21.23715400695801 9.418160438537598 C 22.84504318237305 9.418160438537598 24.41544342041016 9.715840339660645 25.90473365783691 10.30293083190918 L 27.32331275939941 10.86214065551758 L 26.24510383605957 11.94036102294922 L 21.9058837890625 16.27958106994629 L 21.61535263061523 16.57011032104492 L 21.20448303222656 16.57245063781738 C 18.12090301513672 16.59006118774414 15.61222267150879 19.11284065246582 15.61222267150879 22.1961612701416 C 15.61222267150879 25.29764175415039 18.13546371459961 27.82088088989258 21.23695373535156 27.82088088989258 C 24.33843231201172 27.82088088989258 26.86167335510254 25.29764175415039 26.86167335510254 22.1961612701416 C 26.86167335510254 22.15853118896484 26.85942268371582 22.11296081542969 26.8568229675293 22.06019020080566 C 26.8553638458252 22.03045082092285 26.85391235351563 22.00069999694824 26.85272216796875 21.97086143493652 L 26.83525276184082 21.53342056274414 L 27.14481353759766 21.22385025024414 L 31.40102386474609 16.96763038635254 L 32.45539474487305 15.9132604598999 L 33.03070449829102 17.28890991210938 C 33.68380355834961 18.8505802154541 34.01495361328125 20.50154113769531 34.01495361328125 22.19595146179199 C 34.01495361328125 29.24165153503418 28.28285217285156 34.97375106811523 21.23715400695801 34.97375106811523 Z M 21.49965286254883 24.26504135131836 C 20.81671333312988 24.26504135131836 20.15630340576172 23.9796199798584 19.68776321411133 23.48197174072266 C 18.77588272094727 22.51351165771484 18.81928253173828 20.93999099731445 19.78454399108887 19.9743709564209 L 23.64870262145996 16.11021041870117 L 23.94461250305176 15.81430053710938 L 27.64657402038574 12.11234092712402 L 28.34142303466797 11.41749095916748 L 28.34142303466797 9.713871002197266 L 28.34142303466797 5.688820838928223 L 28.34142303466797 5.274610996246338 L 28.63431358337402 4.981710910797119 L 30.46765327453613 3.148370742797852 L 33.93658447265625 -0.3205592036247253 C 34.00949478149414 -0.393479198217392 34.08981323242188 -0.4630191922187805 34.18206405639648 -0.533079206943512 C 34.20481491088867 -0.5502392053604126 34.22452163696289 -0.5648592114448547 34.24484252929688 -0.5792291760444641 C 34.33474349975586 -0.6429635286331177 34.42092514038086 -0.6963139772415161 34.50748062133789 -0.7417793869972229 C 34.52546691894531 -0.7512578964233398 34.54160690307617 -0.7590912580490112 34.55454635620117 -0.7651185393333435 C 34.63157272338867 -0.8031479716300964 34.71091842651367 -0.8367016911506653 34.79641342163086 -0.8674291968345642 L 34.80053329467773 -0.8689191937446594 C 34.82069396972656 -0.8761991858482361 34.84069442749023 -0.8832591772079468 34.86092376708984 -0.8898991942405701 C 34.96403884887695 -0.9231997132301331 35.05735015869141 -0.9471220970153809 35.15005493164063 -0.9642838835716248 C 35.1684684753418 -0.9677340984344482 35.18700790405273 -0.9706935286521912 35.20560836791992 -0.9732394814491272 C 35.28599166870117 -0.9860636591911316 35.36923980712891 -0.9947090744972229 35.45324325561523 -0.9989591836929321 L 35.46107482910156 -0.9993792176246643 C 35.47710418701172 -1.000269174575806 35.49307250976563 -1.001059174537659 35.50921249389648 -1.001589179039001 L 35.51590347290039 -1.00179922580719 L 35.52260208129883 -1.0019291639328 C 35.53905487060547 -1.002239227294922 35.55549240112305 -1.002399206161499 35.57192230224609 -1.002399206161499 C 35.6527214050293 -1.002399206161499 35.73214340209961 -0.9984291791915894 35.80796432495117 -0.9905892014503479 L 35.81437301635742 -0.9899191856384277 L 35.82077407836914 -0.9891791939735413 C 35.83478927612305 -0.9875439405441284 35.84881973266602 -0.9856316447257996 35.86283874511719 -0.9835487604141235 C 35.94163513183594 -0.9734979271888733 36.0214958190918 -0.9590082168579102 36.100341796875 -0.9404591917991638 L 36.10336303710938 -0.9397491812705994 L 36.10637283325195 -0.9390192031860352 C 36.12588119506836 -0.9346091747283936 36.1430549621582 -0.9305592179298401 36.16008377075195 -0.9261592030525208 L 36.1630744934082 -0.9253891706466675 L 36.16605377197266 -0.9245991706848145 C 36.26030731201172 -0.8996484875679016 36.34680938720703 -0.8714513778686523 36.43037414550781 -0.8384389281272888 C 36.4481201171875 -0.8314687013626099 36.46560287475586 -0.8240441083908081 36.48285293579102 -0.8162883520126343 C 36.55459594726563 -0.7858530879020691 36.62660980224609 -0.7508423328399658 36.69707489013672 -0.7121391892433167 L 36.70478439331055 -0.7078992128372192 C 36.72315216064453 -0.6978492140769958 36.7413215637207 -0.6876991987228394 36.75909423828125 -0.6772291660308838 C 36.84417343139648 -0.627149224281311 36.92074203491211 -0.576069176197052 36.99260330200195 -0.5214092135429382 C 37.00722503662109 -0.5103080272674561 37.02204132080078 -0.498382031917572 37.03662872314453 -0.4860901534557343 C 37.09761810302734 -0.437055379152298 37.15785980224609 -0.3832650780677795 37.21558380126953 -0.3262291848659515 C 37.23212432861328 -0.3100492060184479 37.25178146362305 -0.290389209985733 37.27083206176758 -0.2701191902160645 C 37.33981323242188 -0.1973792016506195 37.40139389038086 -0.1241691932082176 37.45615386962891 -0.04942919686436653 L 37.45822143554688 -0.04660919681191444 L 37.46026229858398 -0.04376919567584991 C 37.46798706054688 -0.03307320177555084 37.47555160522461 -0.0221587922424078 37.48297119140625 -0.01102775242179632 C 37.53030395507813 0.05662950128316879 37.57445526123047 0.1282902806997299 37.61758422851563 0.2074208110570908 C 37.63205337524414 0.2341897189617157 37.64425659179688 0.2572464346885681 37.6558837890625 0.2807779610157013 C 37.70481872558594 0.3789705634117126 37.74368667602539 0.4711121916770935 37.77464294433594 0.5623208284378052 L 37.78290176391602 0.5866608023643494 L 37.78686904907227 0.6006784439086914 C 37.81356811523438 0.6842334270477295 37.83567428588867 0.7721598148345947 37.85425186157227 0.8685507774353027 C 37.85906219482422 0.8935707807540894 37.8634147644043 0.9182708263397217 37.867431640625 0.9429507851600647 L 37.8679313659668 0.9460808038711548 L 37.86842346191406 0.9492108225822449 C 37.88660430908203 1.065460801124573 37.89614486694336 1.167220830917358 37.89844131469727 1.269440770149231 L 37.98443603515625 5.292013168334961 L 42.00569152832031 5.377980709075928 C 42.43575286865234 5.38714075088501 42.85300445556641 5.514430999755859 43.21226119995117 5.746080875396729 C 43.35220336914063 5.836350917816162 43.47056198120117 5.929390907287598 43.57421493530273 6.030611038208008 C 43.7302131652832 6.18333101272583 43.86334228515625 6.356160640716553 43.97084426879883 6.545210838317871 C 44.07677459716797 6.731490612030029 44.15690231323242 6.931000709533691 44.20896148681641 7.138150691986084 C 44.4093132019043 7.934051036834717 44.18073272705078 8.757491111755371 43.5974235534668 9.340471267700195 L 38.29535293579102 14.64254093170166 L 38.0024528503418 14.9354305267334 L 37.58824157714844 14.9354305267334 L 33.61921310424805 14.9354305267334 L 31.85957336425781 14.9354305267334 L 31.18339347839355 15.61161041259766 L 27.49741363525391 19.2975902557373 L 25.20071220397949 21.59430122375488 L 23.25863265991211 23.53638076782227 C 22.78872299194336 24.00627136230469 22.16404342651367 24.26504135131836 21.49965286254883 24.26504135131836 Z" stroke="none"/>
    <path d="M 35.57192230224609 -0.002399444580078125 C 35.56181716918945 -0.002399444580078125 35.55170440673828 -0.002300262451171875 35.54158401489258 -0.002109527587890625 C 35.52892303466797 -0.001697540283203125 35.51646423339844 -0.0008697509765625 35.50381469726563 -0.000247955322265625 C 35.45463180541992 0.002239227294921875 35.40566253662109 0.007221221923828125 35.35668182373047 0.01531982421875 C 35.34922409057617 0.0167694091796875 35.34154510498047 0.017181396484375 35.33406448364258 0.01864242553710938 C 35.27970123291016 0.02860260009765625 35.22575378417969 0.043121337890625 35.17242431640625 0.06035232543945313 C 35.15976333618164 0.0644989013671875 35.14731216430664 0.069061279296875 35.13465118408203 0.07363128662109375 C 35.08443450927734 0.09168243408203125 35.03484344482422 0.1124305725097656 34.986083984375 0.1371192932128906 C 34.98172378540039 0.1394119262695313 34.97736358642578 0.1408615112304688 34.97321319580078 0.1431427001953125 C 34.9217529296875 0.1701202392578125 34.87153244018555 0.2022819519042969 34.82235336303711 0.237152099609375 C 34.8103141784668 0.2456512451171875 34.79869079589844 0.2543716430664063 34.78687286376953 0.2632904052734375 C 34.73769378662109 0.3006401062011719 34.68954467773438 0.3406906127929688 34.64368438720703 0.3865509033203125 L 31.17476272583008 3.855480194091797 L 29.34142303466797 5.688819885253906 L 29.34142303466797 9.713871002197266 L 29.34142303466797 11.83171081542969 L 28.35368347167969 12.81945037841797 L 24.65172386169434 16.52140998840332 L 24.35581398010254 16.81731986999512 L 20.49178314208984 20.68134117126465 C 19.91595268249512 21.25739097595215 19.8574333190918 22.20342063903809 20.41584396362305 22.79648017883301 C 20.70987319946289 23.10877990722656 21.10497283935547 23.26504135131836 21.49965286254883 23.26504135131836 C 21.88043403625488 23.26504135131836 22.2610034942627 23.11978149414063 22.55152320861816 22.82927131652832 L 24.49360275268555 20.8871898651123 L 26.79030227661133 18.59048080444336 L 30.47628402709961 14.90450096130371 L 31.44535446166992 13.9354305267334 L 33.61921310424805 13.9354305267334 L 37.58824157714844 13.9354305267334 L 42.8905143737793 8.633171081542969 C 43.25053405761719 8.273342132568359 43.34474182128906 7.801471710205078 43.2391242980957 7.381889343261719 C 43.20903396606445 7.262149810791016 43.16255187988281 7.146781921386719 43.10154342651367 7.039501190185547 C 43.04053497314453 6.932220458984375 42.96459197998047 6.833229064941406 42.87556457519531 6.746082305908203 C 42.81394195556641 6.685901641845703 42.74401473999023 6.634021759033203 42.67034149169922 6.586502075195313 C 42.47757339477539 6.462211608886719 42.24723434448242 6.383350372314453 41.98431396484375 6.377750396728516 L 37.11159515380859 6.273582458496094 L 37.00513458251953 6.27130126953125 L 36.8986930847168 1.291912078857422 C 36.89723205566406 1.226959228515625 36.88997268676758 1.164710998535156 36.88042449951172 1.103702545166016 C 36.87793350219727 1.088352203369141 36.875244140625 1.072990417480469 36.87233352661133 1.057842254638672 C 36.86133193969727 1.000782012939453 36.84784317016602 0.9451713562011719 36.83000183105469 0.8918418884277344 L 36.82771301269531 0.8837394714355469 C 36.80883407592773 0.8281326293945313 36.78518295288086 0.775421142578125 36.75965118408203 0.7243804931640625 C 36.75322341918945 0.7112998962402344 36.74637222290039 0.6986503601074219 36.73952484130859 0.6859893798828125 C 36.71442413330078 0.6399192810058594 36.68744277954102 0.5955123901367188 36.65735244750977 0.5533905029296875 C 36.65445327758789 0.5494422912597656 36.65216445922852 0.5452919006347656 36.64947509765625 0.5415611267089844 C 36.61647415161133 0.4965324401855469 36.58016204833984 0.4548225402832031 36.54219436645508 0.4147720336914063 C 36.53264236450195 0.40460205078125 36.52268218994141 0.3948516845703125 36.51272201538086 0.385101318359375 C 36.47744369506836 0.3502426147460938 36.44071197509766 0.3174514770507813 36.40211486816406 0.2869491577148438 C 36.39714431762695 0.2830009460449219 36.39236450195313 0.2784423828125 36.38718414306641 0.2745018005371094 C 36.34381103515625 0.2415008544921875 36.29815292358398 0.2118301391601563 36.25126266479492 0.1842308044433594 C 36.23964309692383 0.1773796081542969 36.22760391235352 0.1709518432617188 36.2155647277832 0.1643104553222656 C 36.17365264892578 0.1412811279296875 36.13069152832031 0.1203193664550781 36.08649444580078 0.1018524169921875 C 36.07923126220703 0.09894180297851563 36.07218170166016 0.09521102905273438 36.06470489501953 0.0923004150390625 C 36.01449203491211 0.07238006591796875 35.96261215209961 0.05599212646484375 35.91011428833008 0.04209136962890625 C 35.89725494384766 0.0387725830078125 35.88417434692383 0.03607177734375 35.87131500244141 0.032958984375 C 35.82545471191406 0.0221710205078125 35.77876281738281 0.01366043090820313 35.73186492919922 0.00785064697265625 C 35.72294235229492 0.006809234619140625 35.71402359008789 0.00514984130859375 35.70509338378906 0.00411224365234375 C 35.66094970703125 -0.000453948974609375 35.61651611328125 -0.002399444580078125 35.57192230224609 -0.002399444580078125 M 21.23695373535156 1.332790374755859 C 9.733074188232422 1.333000183105469 0.3740043640136719 10.69207000732422 0.3740043640136719 22.19595146179199 C 0.3740043640136719 33.6998291015625 9.733272552490234 43.05911254882813 21.23715400695801 43.05911254882813 C 32.74103546142578 43.05911254882813 42.10031127929688 33.6998291015625 42.10031127929688 22.19595146179199 C 42.10031127929688 19.69713020324707 41.65707397460938 17.30040168762207 40.84758377075195 15.07818031311035 L 39.7890739440918 16.1364803314209 C 39.20535278320313 16.72020149230957 38.41371154785156 17.04807090759277 37.58803176879883 17.04807090759277 L 35.2066650390625 17.04807090759277 C 35.80054473876953 18.65315055847168 36.12758255004883 20.38668060302734 36.12758255004883 22.19574165344238 C 36.12758255004883 30.40645980834961 29.44787216186523 37.08615875244141 21.23715400695801 37.08615875244141 C 13.02644348144531 37.08615875244141 6.346733093261719 30.40645980834961 6.346733093261719 22.19574165344238 C 6.346733093261719 13.98503112792969 13.02644348144531 7.305320739746094 21.23715400695801 7.305320739746094 C 22.98812294006348 7.305320739746094 24.66769218444824 7.612220764160156 26.22879219055176 8.170841217041016 L 26.22879219055176 5.688819885253906 C 26.22879219055176 4.863349914550781 26.55665397644043 4.071491241455078 27.14037322998047 3.487770080566406 L 28.12500381469727 2.503139495849609 C 25.96753311157227 1.746360778808594 23.64986228942871 1.332790374755859 21.23695373535156 1.332790374755859 M 21.23715400695801 10.41815948486328 C 14.74296379089355 10.41815948486328 9.459362030029297 15.70175170898438 9.459362030029297 22.19595146179199 C 9.459362030029297 28.69015121459961 14.74296379089355 33.97375106811523 21.23715400695801 33.97375106811523 C 27.73135375976563 33.97375106811523 33.01495361328125 28.69015121459961 33.01495361328125 22.19595146179199 C 33.01495361328125 20.59398078918457 32.69061279296875 19.06754112243652 32.10813140869141 17.67474174499512 L 27.8519229888916 21.93096160888672 C 27.85545349121094 22.01936149597168 27.86167335510254 22.10693168640137 27.86167335510254 22.1961612701416 C 27.86167335510254 25.84914016723633 24.88994216918945 28.82088088989258 21.23695373535156 28.82088088989258 C 17.58396339416504 28.82088088989258 14.61222267150879 25.84893989562988 14.61222267150879 22.1961612701416 C 14.61222267150879 18.5560417175293 17.56362342834473 15.59322166442871 21.19877243041992 15.57247161865234 L 25.53799247741699 11.23325157165527 C 24.20516395568848 10.70783996582031 22.75446319580078 10.41815948486328 21.23715400695801 10.41815948486328 M 35.57192230224609 -2.002399444580078 C 35.68705368041992 -2.002399444580078 35.80114364624023 -1.996627807617188 35.91101455688477 -1.985260009765625 L 35.92374420166016 -1.983940124511719 L 35.93645477294922 -1.982460021972656 C 35.9572868347168 -1.980033874511719 35.9781379699707 -1.977279663085938 35.99897003173828 -1.974277496337891 C 36.10897827148438 -1.95989990234375 36.22002410888672 -1.939601898193359 36.32937240600586 -1.91387939453125 L 36.33208084106445 -1.913242340087891 C 36.35950088500977 -1.906990051269531 36.38486480712891 -1.900917053222656 36.41005325317383 -1.894420623779297 L 36.41603469848633 -1.892868041992188 L 36.42200469970703 -1.891288757324219 C 36.55183029174805 -1.856922149658203 36.6775016784668 -1.815898895263672 36.7956428527832 -1.76934814453125 C 36.83089447021484 -1.755512237548828 36.86078262329102 -1.742694854736328 36.88446044921875 -1.732151031494141 C 36.98352813720703 -1.689693450927734 37.08239364624023 -1.641426086425781 37.17874145507813 -1.588478088378906 L 37.18449401855469 -1.585330963134766 C 37.21239471435547 -1.570060729980469 37.23994445800781 -1.554588317871094 37.26692199707031 -1.538681030273438 C 37.38591384887695 -1.468650817871094 37.49466323852539 -1.395957946777344 37.59825134277344 -1.317138671875 C 37.62783050537109 -1.294639587402344 37.65290069580078 -1.274330139160156 37.67305755615234 -1.257492065429688 C 37.7560920715332 -1.190181732177734 37.83732223510742 -1.11749267578125 37.91499710083008 -1.040958404541016 C 37.94265747070313 -1.013824462890625 37.96995162963867 -0.9863243103027344 37.99656677246094 -0.9581108093261719 C 38.0964469909668 -0.8525238037109375 38.18351745605469 -0.7486381530761719 38.26266479492188 -0.6406478881835938 L 38.26717376708984 -0.6344985961914063 L 38.27163314819336 -0.6283073425292969 C 38.28415298461914 -0.6109504699707031 38.29633331298828 -0.5934944152832031 38.30836868286133 -0.5756607055664063 C 38.37491607666016 -0.4798622131347656 38.43644332885742 -0.3797760009765625 38.49578475952148 -0.2708587646484375 L 38.49716186523438 -0.2683181762695313 L 38.49854278564453 -0.2657699584960938 C 38.51646423339844 -0.2326545715332031 38.53384017944336 -0.1996192932128906 38.55061340332031 -0.1658210754394531 C 38.61996078491211 -0.0267333984375 38.67589569091797 0.1063232421875 38.72154235839844 0.2407722473144531 L 38.73819351196289 0.2898025512695313 L 38.74509811401367 0.314239501953125 C 38.78136825561523 0.4301986694335938 38.81129455566406 0.5502052307128906 38.83617401123047 0.6792526245117188 C 38.84295272827148 0.714569091796875 38.84903335571289 0.7490196228027344 38.8546142578125 0.7834625244140625 L 38.85550308227539 0.7889289855957031 L 38.85636138916016 0.7943992614746094 C 38.88123321533203 0.9532890319824219 38.89491271972656 1.101322174072266 38.8981819152832 1.246959686279297 L 38.96371841430664 4.312721252441406 L 42.02706146240234 4.378211975097656 C 42.64205169677734 4.391311645507813 43.23931121826172 4.573680877685547 43.75412368774414 4.905601501464844 C 43.95120239257813 5.032730102539063 44.12081146240234 5.166652679443359 44.27296447753906 5.315250396728516 C 44.49624252319336 5.533809661865234 44.68649291992188 5.780742645263672 44.84007263183594 6.050800323486328 C 44.99075317382813 6.315761566162109 45.1047248840332 6.599609375 45.17881393432617 6.894462585449219 C 45.46579360961914 8.034492492675781 45.13896179199219 9.213581085205078 44.30435180664063 10.04776000976563 L 41.98762130737305 12.3644847869873 L 42.72678375244141 14.39364051818848 C 43.63819122314453 16.8956413269043 44.10031127929688 19.52072143554688 44.10031127929688 22.19595146179199 C 44.10031127929688 34.80274200439453 33.84394073486328 45.05911254882813 21.23715400695801 45.05911254882813 C 8.630374908447266 45.05911254882813 -1.625995635986328 34.80274200439453 -1.625995635986328 22.19595146179199 C -1.625995635986328 9.589389801025391 8.630264282226563 -0.6669807434082031 21.23691368103027 -0.6672096252441406 L 21.23695373535156 -0.6672096252441406 C 23.81959342956543 -0.6672096252441406 26.35980224609375 -0.2355194091796875 28.78700256347656 0.6158790588378906 L 30.85910415649414 1.34271240234375 L 33.22946166992188 -1.027660369873047 C 33.33482360839844 -1.133010864257813 33.44858169555664 -1.231727600097656 33.57725524902344 -1.329448699951172 L 33.57968139648438 -1.331298828125 L 33.58212280273438 -1.333137512207031 C 33.6109733581543 -1.354907989501953 33.63949203491211 -1.375968933105469 33.66888427734375 -1.396709442138672 C 33.78998565673828 -1.482578277587891 33.91047668457031 -1.557231903076172 34.03382873535156 -1.622528076171875 C 34.06279754638672 -1.637954711914063 34.09198760986328 -1.652606964111328 34.12184906005859 -1.666702270507813 C 34.22915649414063 -1.719150543212891 34.34209060668945 -1.766769409179688 34.45818328857422 -1.808490753173828 C 34.48924255371094 -1.819728851318359 34.5191650390625 -1.830219268798828 34.54943084716797 -1.84014892578125 L 34.55349349975586 -1.841480255126953 L 34.55755233764648 -1.842788696289063 C 34.69776916503906 -1.888084411621094 34.83190155029297 -1.922348022460938 34.96737289428711 -1.947460174560547 C 35.00381851196289 -1.954261779785156 35.03587341308594 -1.959224700927734 35.06011581420898 -1.962654113769531 C 35.17202758789063 -1.980068206787109 35.2871208190918 -1.991840362548828 35.40268325805664 -1.997688293457031 C 35.43021392822266 -1.999198913574219 35.45341491699219 -2.000297546386719 35.47684478759766 -2.001060485839844 L 35.49044418334961 -2.001499176025391 L 35.50404357910156 -2.001758575439453 C 35.52668380737305 -2.002178192138672 35.54930114746094 -2.002399444580078 35.57192230224609 -2.002399444580078 Z M 21.49965286254883 25.26504135131836 C 20.54218292236328 25.26504135131836 19.61640357971191 24.864990234375 18.95967292785645 24.16746139526367 C 18.31888389587402 23.48690032958984 17.98884391784668 22.59097099304199 18.03040313720703 21.64477157592773 C 18.06980323791504 20.74764060974121 18.44160270690918 19.90334129333496 19.07730293273926 19.26740074157715 L 20.74640846252441 17.59829521179199 C 18.42794227600098 17.84467124938965 16.61222267150879 19.81752967834473 16.61222267150879 22.1961612701416 C 16.61222267150879 24.74624061584473 18.6868724822998 26.82088088989258 21.23695373535156 26.82088088989258 C 23.73551559448242 26.82088088989258 25.77765274047852 24.82917594909668 25.85914611816406 22.35007667541504 L 23.96573257446289 24.24348068237305 C 23.30694389343262 24.90225028991699 22.43114280700684 25.26504135131836 21.49965286254883 25.26504135131836 Z" stroke="none" fill="#fff"/>
  </g>
</svg>
