<svg xmlns="http://www.w3.org/2000/svg" xmlns:xlink="http://www.w3.org/1999/xlink" width="105" height="105" viewBox="0 0 105 105">
  <defs>
    <radialGradient id="radial-gradient" cx="0.5" cy="0.5" r="0.5" gradientUnits="objectBoundingBox">
      <stop offset="0" stop-color="#7ea7df"/>
      <stop offset="1" stop-color="#3c5185"/>
    </radialGradient>
    <filter id="Elipse_72" x="0" y="0" width="105" height="105" filterUnits="userSpaceOnUse">
      <feOffset dy="3" input="SourceAlpha"/>
      <feGaussianBlur stdDeviation="3" result="blur"/>
      <feFlood flood-opacity="0.161"/>
      <feComposite operator="in" in2="blur"/>
      <feComposite in="SourceGraphic"/>
    </filter>
  </defs>
  <g id="Grupo_26617" data-name="Grupo 26617" transform="translate(-421 -3102)">
    <g transform="matrix(1, 0, 0, 1, 421, 3102)" filter="url(#Elipse_72)">
      <circle id="Elipse_72-2" data-name="Elipse 72" cx="43.5" cy="43.5" r="43.5" transform="translate(9 6)" fill="url(#radial-gradient)"/>
    </g>
    <g id="Grupo_26357" data-name="Grupo 26357" transform="translate(450 3124)">
      <g id="Grupo_26356" data-name="Grupo 26356" transform="translate(0 0)">
        <rect id="Rectángulo_4969" data-name="Rectángulo 4969" width="6.561" height="6.561" transform="matrix(0.555, -0.832, 0.832, 0.555, 27.288, 5.458)" fill="#f9a71e"/>
        <path id="Trazado_7239" data-name="Trazado 7239" d="M396.36,3154.239a2.691,2.691,0,0,0,1.762-2.9l-1.538-11.542v-8.2l6.712-2.4a2.516,2.516,0,0,0,1.625-1.915l1.021-5.615,8.346,5.311.977-1.535-9.025-5.745a2.676,2.676,0,0,0-2.682-2.583,2.714,2.714,0,0,0-1.044.215l-7.261-4.625-.977,1.535,6.883,4.379a2.722,2.722,0,0,0-.246.763l-.846,5.486-5.34,1.807a5.381,5.381,0,0,0-6.893-.25l-.282.233c-.069.059-1.559,1.41-2.792,2.538v-2.886a2.8,2.8,0,0,0-2.277-2.789,2.732,2.732,0,0,0-3.181,2.692v7.416a3.5,3.5,0,0,0,5.84,2.6l.527-.47v4.043l-1.53,11.469a2.753,2.753,0,0,0,1.754,2.967,18.919,18.919,0,0,0-4.2,1.742l-10.278,5.829.9,1.582,10.278-5.829a17.405,17.405,0,0,1,17.073,0l10.278,5.829.9-1.582-10.278-5.829A18.95,18.95,0,0,0,396.36,3154.239Zm-12.437-19.367a1.68,1.68,0,0,1-2.8-1.249v-7.416a.906.906,0,0,1,.322-.693.921.921,0,0,1,.752-.2.986.986,0,0,1,.752.994v7l1.521-1.383s4.13-3.753,4.268-3.876l.228-.188a3.64,3.64,0,0,1,4.857.47l.4.443,7.484-2.534,1.012-6.581c0-.016.012-.027.014-.042l1.561.993-1.154,6.345a.7.7,0,0,1-.448.526l-7.919,2.829v9.542l1.547,11.73a.886.886,0,0,1-.26.752.876.876,0,0,1-.775.243.958.958,0,0,1-.746-.846l-1.705-12.786h-3.412l-1.716,12.874a.89.89,0,0,1-.394.628.911.911,0,0,1-.752.112.94.94,0,0,1-.614-1.042l1.537-11.538.009-8.307Zm4.749,18.789a2.7,2.7,0,0,0,.836-1.61l1.5-11.29h.227l1.5,11.212a2.859,2.859,0,0,0,.863,1.692,19.325,19.325,0,0,0-4.925,0Z" transform="translate(-367.475 -3108.016)" fill="#fff"/>
        <path id="Trazado_7240" data-name="Trazado 7240" d="M397.49,3119.95a5.458,5.458,0,1,0-5.458,5.458A5.464,5.464,0,0,0,397.49,3119.95Zm-5.458,3.638a3.638,3.638,0,1,1,3.638-3.638A3.642,3.642,0,0,1,392.033,3123.588Z" transform="translate(-368.382 -3108.123)" fill="#fff"/>
        <path id="Trazado_7241" data-name="Trazado 7241" d="M415.366,3133.846h-1.819v1.819h-1.819v1.819h1.819v1.814h1.819v-1.817h1.819v-1.819h-1.819Z" transform="translate(-369.888 -3109.281)" fill="#fff"/>
        <path id="Trazado_7242" data-name="Trazado 7242" d="M407.687,3143.286v-.91h.91v-1.819h-.91v-.909h-1.819v.909h-.909v1.819h.909v.91Z" transform="translate(-369.483 -3109.629)" fill="#fff"/>
        <path id="Trazado_7243" data-name="Trazado 7243" d="M413.434,3142.551h-1.819v1.819H409.8v1.819h1.819v1.819h1.819v-1.819h1.819v-1.819h-1.819Z" transform="translate(-369.772 -3109.803)" fill="#fff"/>
        <path id="Trazado_7244" data-name="Trazado 7244" d="M377.751,3116.078h1.819v-1.819h1.819v-1.819h-1.819v-1.814h-1.819v1.819h-1.814v1.819h1.819Z" transform="translate(-367.746 -3107.891)" fill="#fff"/>
        <path id="Trazado_7245" data-name="Trazado 7245" d="M369.952,3113.292v-.909h.91v-1.819h-.91v-.91h-1.819v.91h-.909v1.819h.909v.909Z" transform="translate(-367.224 -3107.833)" fill="#fff"/>
        <path id="Trazado_7246" data-name="Trazado 7246" d="M372.8,3121.885v-1.819h1.819v-1.819H372.8v-1.819h-1.819v1.819h-1.819v1.819h1.819v1.819Z" transform="translate(-367.34 -3108.239)" fill="#fff"/>
      </g>
    </g>
  </g>
</svg>
