<svg id="Capa_1" data-name="Capa 1" xmlns="http://www.w3.org/2000/svg" viewBox="0 0 46.91 47.06"><defs><style>.cls-1{fill:#f9a71e;}.cls-2{fill:#fff;}</style></defs><g id="Trazado_8201" data-name="Trazado 8201"><path class="cls-1" d="M22.86,46.74a21.86,21.86,0,1,1,7.22-42.5l1.5.53L30.46,5.89l-1,1a2.09,2.09,0,0,0-.61,1.49v3.9l-1.34-.47A13.68,13.68,0,0,0,22.86,11,13.89,13.89,0,1,0,36.75,24.88a13.75,13.75,0,0,0-.85-4.8l-.5-1.35h3.81a2.1,2.1,0,0,0,1.5-.62l1.06-1.06,1.11-1.11.53,1.48A21.84,21.84,0,0,1,22.86,46.74Zm0-9.08a12.78,12.78,0,0,1,0-25.56,12.63,12.63,0,0,1,4.67.89l1.42.56-1.08,1.07L23.53,19l-.29.29h-.41a5.62,5.62,0,1,0,5.66,5.62.76.76,0,0,0,0-.14v-.09l0-.43.31-.31L33,19.65l1-1L34.66,20a12.78,12.78,0,0,1-11.8,17.69ZM23.13,27a2.48,2.48,0,0,1-1.72-4.29l3.87-3.87.29-.29,3.7-3.7.7-.7V8l.29-.3,1.83-1.83,3.47-3.47.25-.21.06,0,.26-.16,0,0,.24-.1h0l.06,0,.29-.07h0l.25,0h.41l.24,0h0l.06,0h0l.27.08,0,0,.21.1h0l.06,0,.23.15s0,0,0,0l.18.16.06.05.18.22h0l0,0a1.59,1.59,0,0,1,.13.22l0,.07a1.78,1.78,0,0,1,.12.29v0h0a2.68,2.68,0,0,1,.07.27.22.22,0,0,1,0,.08h0a1.91,1.91,0,0,1,0,.32l.09,4,4,.08a2.35,2.35,0,0,1,1.21.37,2.14,2.14,0,0,1,.36.28,2.49,2.49,0,0,1,.4.52,2.81,2.81,0,0,1,.24.59,2.28,2.28,0,0,1-.62,2.2l-5.3,5.31-.29.29H33.49l-.68.67L29.12,22l-2.29,2.3-1.95,1.94A2.44,2.44,0,0,1,23.13,27Z"/><path class="cls-2" d="M37.2,2h-.07L37,2h0l-.16,0,0,0a.47.47,0,0,0-.15.06h0a.6.6,0,0,0-.15.09l0,0a.75.75,0,0,0-.14.12L32.8,5.86,31,7.69v6.14l-1,1-3.7,3.7-.3.3-3.86,3.86A1.53,1.53,0,0,0,22,24.8a1.51,1.51,0,0,0,1.09.47,1.49,1.49,0,0,0,1.05-.44l1.94-1.94,2.3-2.3,3.68-3.68,1-1h6.14l5.31-5.3a1.33,1.33,0,0,0,.35-1.26A1.43,1.43,0,0,0,44.73,9a1.28,1.28,0,0,0-.23-.29,1.56,1.56,0,0,0-.2-.16,1.34,1.34,0,0,0-.69-.21l-4.87-.1h-.11l-.11-5a1.09,1.09,0,0,0,0-.18v0c0-.06,0-.11,0-.17h0l-.06-.16,0,0-.09-.13v0l-.11-.12,0,0L38,2.29h0a.51.51,0,0,0-.13-.09l0,0-.13-.07h0l-.15,0h0l-.14,0H37.2M22.86,3.33A20.9,20.9,0,1,0,42.47,17.08l-1,1.06a3.15,3.15,0,0,1-2.21.91H36.83a14.69,14.69,0,0,1,.92,5.15A14.89,14.89,0,1,1,22.86,9.31a14.74,14.74,0,0,1,5,.86V7.69a3.1,3.1,0,0,1,.92-2.2l1-1a20.69,20.69,0,0,0-6.89-1.18m0,9.09A11.78,11.78,0,1,0,34.64,24.2a11.55,11.55,0,0,0-.91-4.52l-4.25,4.25c0,.09,0,.18,0,.27a6.63,6.63,0,1,1-6.67-6.63l4.34-4.33a11.59,11.59,0,0,0-4.3-.82M37.2,0l.34,0h.08A2,2,0,0,1,38,.09h0l.08,0h0l.37.12.09,0,.29.14h0l.08,0,.33.22.08.06.24.22.08.08a3.82,3.82,0,0,1,.27.32h0l0,.06a2.2,2.2,0,0,1,.19.3h0l.06.1a4.34,4.34,0,0,1,.17.4v.08a1.9,1.9,0,0,1,.09.36.43.43,0,0,1,0,.11h0a2.35,2.35,0,0,1,0,.45l.07,3.06,3.06.07a3.29,3.29,0,0,1,1.73.53,2.69,2.69,0,0,1,.52.41,3.68,3.68,0,0,1,.57.73,3.38,3.38,0,0,1-.54,4l-2.32,2.32.74,2A22.86,22.86,0,1,1,22.86,1.33h0a22.73,22.73,0,0,1,7.55,1.29l2.08.72L34.86,1a3.45,3.45,0,0,1,.34-.3h0l.08-.06a3.13,3.13,0,0,1,.37-.23l.09,0c.11-.06.22-.1.33-.15l.1,0h0a3.59,3.59,0,0,1,.41-.11h.1L37,0h.17ZM23.13,27.27a3.48,3.48,0,0,1-2.54-1.1,3.36,3.36,0,0,1-.93-2.52,3.61,3.61,0,0,1,1-2.38l1.67-1.67a4.62,4.62,0,1,0,5.12,4.75l-1.9,1.9A3.49,3.49,0,0,1,23.13,27.27Z"/></g></svg>